<?xml version="1.0" standalone="no"?>
<!DOCTYPE svg PUBLIC "-//W3C//DTD SVG 20010904//EN"
 "http://www.w3.org/TR/2001/REC-SVG-20010904/DTD/svg10.dtd">
<svg version="1.0" xmlns="http://www.w3.org/2000/svg"
 width="500.000000pt" height="500.000000pt" viewBox="0 0 500.000000 500.000000"
 preserveAspectRatio="xMidYMid meet">
<metadata>
Created by potrace 1.11, written by Peter Selinger 2001-2013
</metadata>
<g transform="translate(0.000000,500.000000) scale(0.100000,-0.100000)"
fill="#000000" stroke="none">
<path d="M2050 3288 c-87 -33 -217 -180 -270 -302 -61 -144 -48 -325 37 -487
41 -81 81 -124 288 -315 185 -170 192 -182 194 -328 1 -49 9 -123 17 -164 15
-73 15 -75 -6 -97 -22 -23 -22 -24 -4 -43 11 -11 30 -22 43 -24 32 -4 37 -23
12 -45 -26 -22 -26 -31 0 -59 18 -19 24 -20 55 -11 81 25 109 83 75 154 l-22
45 33 30 c63 56 135 108 203 145 77 42 122 93 181 208 61 116 137 225 216 310
82 88 122 143 162 224 68 133 101 305 87 449 l-7 72 -93 94 c-124 125 -167
148 -285 154 -75 3 -102 0 -155 -18 -115 -39 -156 -65 -217 -140 -31 -38 -62
-70 -69 -70 -8 0 -36 32 -65 71 -75 104 -160 151 -295 163 -47 4 -72 0 -115
-16z m1170 -358 c0 -5 -5 -10 -11 -10 -5 0 -7 5 -4 10 3 6 8 10 11 10 2 0 4
-4 4 -10z m-1175 -591 c6 -33 5 -36 -16 -35 -14 1 -29 11 -36 26 -11 22 -10
27 9 43 25 21 34 14 43 -34z m943 -47 c3 -10 -11 -17 -21 -9 -2 1 -11 -4 -20
-11 -21 -18 -40 -6 -28 16 11 20 63 22 69 4z m-78 -46 c0 -3 -4 -8 -10 -11 -5
-3 -10 -1 -10 4 0 6 5 11 10 11 6 0 10 -2 10 -4z"/>
</g>
</svg>
